<svg xmlns="http://www.w3.org/2000/svg" xmlns:svg="http://www.w3.org/2000/svg" style="clip-rule:evenodd;fill-rule:evenodd;image-rendering:optimizeQuality;shape-rendering:geometricPrecision;text-rendering:geometricPrecision" id="svg863" width="180mm" height="180mm" version="1.1" viewBox="0 0 680.315 680.315" xml:space="preserve"><metadata id="metadata867"/><defs id="defs847"><style id="style842" type="text/css">.fil2{fill:#498fe1}.fil1{fill:#f4cb23}.fil0{fill:#fff}</style><clipPath id="id0"><path id="path844" d="M 261,261 H 920 V 920 H 261 Z"/></clipPath></defs><g id="g850" transform="translate(-261.00002,261.00004)"><circle id="circle855" cx="600.641" cy="79.674" r="283.895" class="fil0" style="fill:#fff;stroke-width:1.03234434"/><g id="_543962760" transform="matrix(1.0323444,0,0,1.0323444,-8.4418725,-530.44193)"><path id="path857" d="m 573,643 85,-259 c 1,-3 3,-7 1,-11 -3,-9 -13,-9 -19,-3 -78,84 -156,169 -234,253 -4,4 -6,6 -5,12 1,5 6,8 11,8 z" class="fil1" style="fill:#f4cb23"/><path id="path859" d="m 608,538 -85,259 c -1,3 -3,7 -1,11 3,9 13,9 19,3 78,-84 156,-169 234,-253 4,-4 6,-6 5,-12 -1,-5 -6,-8 -11,-8 z" class="fil2" style="fill:#498fe1"/></g></g></svg>