<svg xmlns="http://www.w3.org/2000/svg" xmlns:xlink="http://www.w3.org/1999/xlink" width="600" height="600" version="1.1" viewBox="0 0 600 600" xml:space="preserve" style="shape-rendering:geometricPrecision;text-rendering:geometricPrecision;image-rendering:optimizeQuality;fill-rule:evenodd;clip-rule:evenodd"><defs><style type="text/css">.str0{stroke:#4a4a4a;stroke-width:24.9993}.fil1{fill:#4a4a4a}.fil0{fill:#fff}</style></defs><g id="Layer_x0020_1"><metadata id="CorelCorpID_0Corel-Layer"/><g id="_279972888"><g><g><path d="M85 0l430 0c47,0 85,38 85,85l0 430c0,47 -38,85 -85,85l-430 0c-47,0 -85,-38 -85,-85l0 -430c0,-47 38,-85 85,-85z" class="fil0"/><path id="1" d="M85 0l430 0c47,0 85,38 85,85l0 430c0,47 -38,85 -85,85l-430 0c-47,0 -85,-38 -85,-85l0 -430c0,-47 38,-85 85,-85zm430 25l-430 0c-16,0 -31,7 -42,18 -11,11 -18,26 -18,42l0 430c0,16 7,31 18,42 11,11 26,18 42,18l430 0c16,0 31,-7 42,-18 11,-11 18,-26 18,-42l0 -430c0,-16 -7,-31 -18,-42 -11,-11 -26,-18 -42,-18z" class="fil1"/></g><g><polygon points="434 412 299 188 166 412" class="fil0 str0"/><circle cx="299" cy="188" r="65" class="fil0 str0"/><circle cx="434" cy="412" r="65" class="fil0 str0"/><circle cx="166" cy="412" r="65" class="fil0 str0"/></g></g><g><path d="M85 0l430 0c47,0 85,38 85,85l0 430c0,47 -38,85 -85,85l-430 0c-47,0 -85,-38 -85,-85l0 -430c0,-47 38,-85 85,-85z" class="fil0"/><path id="1" d="M85 0l430 0c47,0 85,38 85,85l0 430c0,47 -38,85 -85,85l-430 0c-47,0 -85,-38 -85,-85l0 -430c0,-47 38,-85 85,-85zm430 25l-430 0c-16,0 -31,7 -42,18 -11,11 -18,26 -18,42l0 430c0,16 7,31 18,42 11,11 26,18 42,18l430 0c16,0 31,-7 42,-18 11,-11 18,-26 18,-42l0 -430c0,-16 -7,-31 -18,-42 -11,-11 -26,-18 -42,-18z" class="fil1"/></g><polygon points="434 412 299 188 166 412" class="fil0 str0"/><circle cx="299" cy="188" r="65" class="fil0 str0"/><circle cx="434" cy="412" r="65" class="fil0 str0"/><circle cx="166" cy="412" r="65" class="fil0 str0"/><circle cx="299" cy="188" r="10" class="fil1 str0"/><circle cx="166" cy="412" r="10" class="fil1 str0"/><circle cx="434" cy="412" r="10" class="fil1 str0"/></g></g></svg>