<svg xmlns="http://www.w3.org/2000/svg" xmlns:svg="http://www.w3.org/2000/svg" style="shape-rendering:geometricPrecision;text-rendering:geometricPrecision;image-rendering:optimizeQuality;fill-rule:evenodd;clip-rule:evenodd" id="svg915" width="600" height="600" version="1.1" viewBox="0 0 600 600" xml:space="preserve"><metadata id="metadata919"/><defs id="defs870"><style id="style868" type="text/css">.str0,.str1,.str2{stroke:#4a4a4a;stroke-width:24.9993}.str2{stroke-width:21.9993;stroke-linecap:round;stroke-linejoin:round}.fil6{fill:none}.fil0{fill:#fff}.fil1{fill:#4a4a4a}.fil4{fill:#fefefe}.fil2,.fil4{fill-rule:nonzero}.fil3{fill:#4a4a4a}.fil3,.fil5{fill-rule:nonzero}.fil2,.fil5{fill:#fff}</style></defs><g id="Layer_x0020_1"><metadata id="CorelCorpID_0Corel-Layer"/><g id="g876"><path id="path873" d="M85 0l430 0c47,0 85,38 85,85l0 430c0,47 -38,85 -85,85l-430 0c-47,0 -85,-38 -85,-85l0 -430c0,-47 38,-85 85,-85z" class="fil0"/><path id="1" d="M85 0l430 0c47,0 85,38 85,85l0 430c0,47 -38,85 -85,85l-430 0c-47,0 -85,-38 -85,-85l0 -430c0,-47 38,-85 85,-85zm430 25l-430 0c-16,0 -31,7 -42,18 -11,11 -18,26 -18,42l0 430c0,16 7,31 18,42 11,11 26,18 42,18l430 0c16,0 31,-7 42,-18 11,-11 18,-26 18,-42l0 -430c0,-16 -7,-31 -18,-42 -11,-11 -26,-18 -42,-18z" class="fil1"/></g><g id="g894"><g id="_235726848"><path id="path878" d="M352 360c35,-16 54,-33 73,-75 25,-62 1,-135 -58,-169 -65,-37 -149,-15 -186,50 -38,65 -16,149 50,186 37,22 82,24 121,8z" class="fil2 str0"/><g id="g886"><path id="path880" d="M487 212c0,6 0,12 0,19 0,38 -8,79 -80,79 -34,0 -61,-17 -79,-46 -14,-23 -20,-48 -22,-58 0,-1 0,-2 -1,-3 -4,-2 -9,-1 -13,0 0,1 0,2 -1,3 -2,10 -7,35 -22,58 -15,24 -40,46 -78,46 -71,0 -82,-41 -81,-98 0,-14 5,-26 14,-37 8,-8 15,-14 46,-16l79 -1c13,0 27,5 36,17 9,-3 19,-3 28,0 8,-12 22,-17 36,-17l79 1c12,0 31,3 43,13 12,13 16,23 16,40z" class="fil3"/><path id="path882" d="M435 188l-82 -1c-14,0 -21,5 -17,20 2,10 7,27 17,42 12,20 31,33 55,32 45,0 50,-27 51,-51 0,-6 -1,-12 -1,-17 0,-16 -9,-25 -23,-25z" class="fil4"/><path id="path884" d="M249 187l-85 1c-14,0 -25,8 -25,24 0,5 0,11 0,16 0,26 4,53 52,53 26,0 43,-15 54,-32 10,-16 15,-34 17,-44 3,-11 -1,-18 -13,-18z" class="fil4"/></g></g><g id="_235726272"><path id="path889" d="M521 347c8,-2 13,-4 17,-11 6,-9 0,-20 -14,-25 -16,-6 -36,-2 -45,7 -9,10 -3,23 12,28 9,4 20,4 30,1z" class="fil5 str0"/><path id="path891" d="M105 347c8,-2 13,-5 18,-11 6,-9 0,-20 -14,-25 -16,-6 -36,-3 -45,7 -9,10 -4,22 12,28 9,3 20,4 29,1z" class="fil5 str0"/></g></g><g id="g900"><line id="line896" x1="0" x2="600" y1="342" y2="342" class="fil6 str1"/><rect id="rect898" width="544.122" height="45.833" x="25" y="354.344" class="fil0" style="fill:#fff"/></g><g id="g906"><line id="line902" x1="86" x2="241" y1="429" y2="429" class="fil6 str2"/><line id="line904" x1="86" x2="241" y1="502" y2="502" class="fil6 str2"/></g><g id="g912"><line id="line908" x1="360" x2="515" y1="429" y2="429" class="fil6 str2"/><line id="line910" x1="360" x2="515" y1="502" y2="502" class="fil6 str2"/></g></g></svg>